<svg xmlns="http://www.w3.org/2000/svg" width="512" height="512" viewBox="0 0 100 100">
  <defs>
    <linearGradient id="av-brasa-bg" x1="0" y1="0" x2="0" y2="1">
      <stop offset="0" stop-color="#EE5A45"/><stop offset="1" stop-color="#9A1E1E"/>
    </linearGradient>
    <clipPath id="av-brasa-card"><rect width="100" height="100"/></clipPath>
  </defs>
  <g clip-path="url(#av-brasa-card)">
    <rect width="100" height="100" fill="url(#av-brasa-bg)"/>
    <path d="M6 0 C4 12 10 20 20 26 C14 16 18 8 26 0 Z M66 0 C62 10 68 18 80 24 C74 14 78 6 86 0 Z"
          fill="#000" fill-opacity=".09"/>
    <g transform="translate(50 100) scale(1.1) translate(-50 -100)">
  <path d="M12 100 V91 Q12 72 36 68 Q50 76 64 68 Q88 72 88 91 V100 Z" fill="#FFFFFF" fill-opacity=".5"/>
  <path d="M40 69 Q50 79 60 69" fill="none" stroke="#9A1E1E" stroke-width="2" stroke-opacity=".35" stroke-linecap="round" stroke-linejoin="round"/>
  <rect x="43" y="56" width="14" height="15" rx="4" fill="#FFFFFF"/>
  <path d="M43 60 Q50 67 57 60 V65.5 Q50 70 43 65.5 Z" fill="#9A1E1E" fill-opacity=".22"/>
  <circle cx="34.5" cy="48" r="4" fill="#FFFFFF"/><circle cx="65.5" cy="48" r="4" fill="#FFFFFF"/>
  <ellipse cx="50" cy="45" rx="15.5" ry="18" fill="#FFFFFF"/><circle cx="44" cy="45" r="1.7" fill="#9A1E1E"/><circle cx="56" cy="45" r="1.7" fill="#9A1E1E"/><path d="M40.5 40.5 Q44 39 47 40.3 M53 40.3 Q56 39 59.5 40.5" fill="none" stroke="#9A1E1E" stroke-width="1.6" stroke-opacity=".8" stroke-linecap="round" stroke-linejoin="round"/><path d="M34.8 44 C34.5 60 41 70 50 71 C59 70 65.5 60 65.2 44 C63 52 60.5 56.5 56 57.5 Q50 60.5 44 57.5 C39.5 56.5 37 52 34.8 44 Z" fill="#9A1E1E" fill-opacity="1"/><path d="M42.5 55.5 Q46 52.5 50 54 Q54 52.5 57.5 55.5 Q54 57 50 55.6 Q46 57 42.5 55.5 Z" fill="#9A1E1E" fill-opacity="1"/><path d="M40 31 Q45 28.5 49 29" fill="none" stroke="#9A1E1E" stroke-width="1.6" stroke-opacity=".2" stroke-linecap="round" stroke-linejoin="round"/></g>
  </g>
</svg>
