<svg xmlns="http://www.w3.org/2000/svg" width="512" height="512" viewBox="0 0 100 100">
  <defs>
    <linearGradient id="av-ambar-bg" x1="0" y1="0" x2="0" y2="1">
      <stop offset="0" stop-color="#F4B846"/><stop offset="1" stop-color="#B26A0C"/>
    </linearGradient>
    <clipPath id="av-ambar-card"><rect width="100" height="100"/></clipPath>
  </defs>
  <g clip-path="url(#av-ambar-card)">
    <rect width="100" height="100" fill="url(#av-ambar-bg)"/>
    <path d="M6 0 C4 12 10 20 20 26 C14 16 18 8 26 0 Z M66 0 C62 10 68 18 80 24 C74 14 78 6 86 0 Z"
          fill="#000" fill-opacity=".1"/>
    
  <path d="M14 100 V89 Q14 71 50 69 Q86 71 86 89 V100 Z" fill="#6E4207"/>
  
  <g transform="rotate(5 50 62)">
    <circle cx="31.0" cy="33" r="8.5" fill="#6E4207"/><circle cx="69.0" cy="33" r="8.5" fill="#6E4207"/>
    <circle cx="31.0" cy="33" r="4.3" fill="#FFFFFF" fill-opacity=".3"/><circle cx="69.0" cy="33" r="4.3" fill="#FFFFFF" fill-opacity=".3"/>
    <ellipse cx="50" cy="50" rx="22.5" ry="20.5" fill="#6E4207"/>
    <ellipse cx="41.5" cy="47" rx="1.6" ry="2.3" fill="#FFFFFF"/><path d="M55.5 47.5 Q58.5 44.5 61.5 47.5" fill="none" stroke="#FFFFFF" stroke-width="1.8" stroke-linecap="round" stroke-linejoin="round"/>
    <path d="M40 56 C40 50 60 50 60 56 C60 63 55 67.5 50 67.5 C45 67.5 40 63 40 56 Z" fill="#FFFFFF"/>
    <path d="M45.5 54 Q50 52.3 54.5 54 Q54 57.6 50 59.6 Q46 57.6 45.5 54 Z" fill="#6E4207"/>
    <path d="M50 59.5 V61 M46.5 61.5 Q50 64.5 53.5 61.5" fill="none" stroke="#6E4207" stroke-width="1.3" stroke-linecap="round" stroke-linejoin="round"/></g>
  </g>
</svg>
