<svg xmlns="http://www.w3.org/2000/svg" width="512" height="512" viewBox="0 0 100 100">
  <defs>
    <linearGradient id="av-terracota-bg" x1="0" y1="0" x2="0" y2="1">
      <stop offset="0" stop-color="#CF6444"/><stop offset="1" stop-color="#6E2A1C"/>
    </linearGradient>
    <clipPath id="av-terracota-card"><rect width="100" height="100"/></clipPath>
  </defs>
  <g clip-path="url(#av-terracota-card)">
    <rect width="100" height="100" fill="url(#av-terracota-bg)"/>
    <path d="M6 0 C4 12 10 20 20 26 C14 16 18 8 26 0 Z M66 0 C62 10 68 18 80 24 C74 14 78 6 86 0 Z"
          fill="#000" fill-opacity=".1"/>
    
  <path d="M14 100 V89 Q14 71 50 69 Q86 71 86 89 V100 Z" fill="#441A11"/>
  
  <g transform="rotate(0 50 62)">
    <circle cx="33.0" cy="33" r="8.5" fill="#441A11"/><circle cx="71.0" cy="33" r="8.5" fill="#441A11"/>
    <circle cx="33.0" cy="33" r="4.3" fill="#FFFFFF" fill-opacity=".3"/><circle cx="71.0" cy="33" r="4.3" fill="#FFFFFF" fill-opacity=".3"/>
    <ellipse cx="50" cy="50" rx="22.5" ry="20.5" fill="#441A11"/>
    <ellipse cx="44.5" cy="47" rx="1.6" ry="2.3" fill="#FFFFFF"/><ellipse cx="61.5" cy="47" rx="1.6" ry="2.3" fill="#FFFFFF"/>
    <path d="M45 56 C45 50 65 50 65 56 C65 63 60 67.5 55 67.5 C50 67.5 45 63 45 56 Z" fill="#FFFFFF"/>
    <path d="M50.5 54 Q55 52.3 59.5 54 Q59 57.6 55 59.6 Q51 57.6 50.5 54 Z" fill="#441A11"/>
    <path d="M55 59.5 V61 M51.5 61.5 Q55 64.5 58.5 61.5" fill="none" stroke="#441A11" stroke-width="1.3" stroke-linecap="round" stroke-linejoin="round"/></g>
  </g>
</svg>
