<svg xmlns="http://www.w3.org/2000/svg" width="2048" height="1296" viewBox="0 0 512 324">
<rect width="512" height="324" fill="#EDEDED"/>
<g transform="translate(32 32)"><rect width="100" height="100" fill="#E40303"/>
  <path d="M26 24 H74 L50 50 Z" fill="none" stroke="#FFFFFF" stroke-width="5" stroke-linejoin="miter" stroke-linecap="butt"/>
  <path d="M34 31 H66 L50 48 Z" fill="#FFFFFF"/>
  <line x1="50" y1="50" x2="50" y2="74" fill="none" stroke="#FFFFFF" stroke-width="5" stroke-linejoin="miter" stroke-linecap="butt"/>
  <rect x="35" y="72" width="30" height="5" fill="#FFFFFF"/>
  <line x1="57" y1="38" x2="71" y2="14" stroke="#FFFFFF" stroke-width="3.5"/>
  <circle cx="69" cy="17" r="4.5" fill="#FFFFFF"/></g>
<text x="82" y="147" text-anchor="middle" font-family="Helvetica, Arial, sans-serif" font-size="9" font-weight="600" fill="#333">Bares</text>
<g transform="translate(148 32)"><rect width="100" height="100" fill="#FF8C00"/>
  <defs><clipPath id="ball"><circle cx="50" cy="56" r="24"/></clipPath></defs>
  <line x1="50" y1="12" x2="50" y2="32" fill="none" stroke="#FFFFFF" stroke-width="5" stroke-linejoin="miter" stroke-linecap="butt"/>
  <circle cx="50" cy="56" r="24" fill="#FFFFFF"/>
  <g clip-path="url(#ball)" stroke="#FF8C00" stroke-width="2.6">
    <line x1="20" y1="44" x2="80" y2="44"/><line x1="20" y1="56" x2="80" y2="56"/>
    <line x1="20" y1="68" x2="80" y2="68"/>
    <line x1="38" y1="28" x2="38" y2="84"/><line x1="50" y1="28" x2="50" y2="84"/>
    <line x1="62" y1="28" x2="62" y2="84"/>
  </g>
  <path d="M80 18 L82 24 L88 26 L82 28 L80 34 L78 28 L72 26 L78 24 Z" fill="#FFFFFF"/>
  <path d="M19 30 L20.3 34 L24 35.3 L20.3 36.6 L19 40.6 L17.7 36.6 L14 35.3 L17.7 34 Z" fill="#FFFFFF"/></g>
<text x="198" y="147" text-anchor="middle" font-family="Helvetica, Arial, sans-serif" font-size="9" font-weight="600" fill="#333">Discoteca</text>
<g transform="translate(264 32)"><rect width="100" height="100" fill="#004DFF"/>
  <path d="M36 62 C28 55 44 49 36 42 C28 35 44 29 36 22" fill="none" stroke="#FFFFFF" stroke-width="5" stroke-linecap="butt"/>
  <path d="M50 62 C42 55 58 49 50 42 C42 35 58 29 50 22" fill="none" stroke="#FFFFFF" stroke-width="5" stroke-linecap="butt"/>
  <path d="M64 62 C56 55 72 49 64 42 C56 35 72 29 64 22" fill="none" stroke="#FFFFFF" stroke-width="5" stroke-linecap="butt"/>
  <rect x="20" y="68" width="60" height="6" fill="#FFFFFF"/>
  <rect x="26" y="74" width="6" height="12" fill="#FFFFFF"/>
  <rect x="68" y="74" width="6" height="12" fill="#FFFFFF"/></g>
<text x="314" y="147" text-anchor="middle" font-family="Helvetica, Arial, sans-serif" font-size="9" font-weight="600" fill="#333">Sauna</text>
<g transform="translate(380 32)"><rect width="100" height="100" fill="#008026"/>
  <rect x="30" y="16" width="44" height="68" fill="none" stroke="#FFFFFF" stroke-width="5" stroke-linejoin="miter" stroke-linecap="butt"/>
  <path d="M27.5 13.5 L46 20 V80 L27.5 86.5 Z" fill="#FFFFFF"/>
  <circle cx="41" cy="52" r="1.8" fill="#008026"/>
  <circle cx="60" cy="37" r="8" fill="#FFFFFF"/>
  <path d="M49 84 V56 L53 50 H67.5 L71.5 56 V84 Z" fill="#FFFFFF"/></g>
<text x="430" y="147" text-anchor="middle" font-family="Helvetica, Arial, sans-serif" font-size="9" font-weight="600" fill="#333">Cruising</text>
<g transform="translate(32 170)"><rect width="100" height="100" fill="#D9A400"/>
  <circle cx="50" cy="52" r="19" fill="none" stroke="#FFFFFF" stroke-width="5" stroke-linejoin="miter" stroke-linecap="butt"/>
  <circle cx="50" cy="52" r="10" fill="none" stroke="#FFFFFF" stroke-width="3"/>
  <path d="M16 20 V36 H28 V20" fill="none" stroke="#FFFFFF" stroke-width="3.5"/>
  <line x1="22" y1="20" x2="22" y2="36" stroke="#FFFFFF" stroke-width="3.5"/>
  <rect x="19.5" y="34" width="5" height="50" fill="#FFFFFF"/>
  <path d="M75 18 L84 28 V52 H75 Z" fill="#FFFFFF"/>
  <rect x="75" y="50" width="5" height="34" fill="#FFFFFF"/></g>
<text x="82" y="285" text-anchor="middle" font-family="Helvetica, Arial, sans-serif" font-size="9" font-weight="600" fill="#333">Comer e beber</text>
<g transform="translate(148 170)"><rect width="100" height="100" fill="#750787"/>
  <circle cx="78" cy="30" r="8" fill="#FFFFFF"/>
  <path d="M34 74 Q36 54 46 36" fill="none" stroke="#FFFFFF" stroke-width="5"/>
  <path d="M46 36 Q34 24 16 32 Q32 30 46 36 Z" fill="#FFFFFF"/>
  <path d="M46 36 Q40 18 26 16 Q38 24 46 36 Z" fill="#FFFFFF"/>
  <path d="M46 36 Q54 20 66 18 Q56 26 46 36 Z" fill="#FFFFFF"/>
  <path d="M46 36 Q62 34 68 50 Q58 38 46 36 Z" fill="#FFFFFF"/>
  <path d="M46 36 Q30 38 24 52 Q34 40 46 36 Z" fill="#FFFFFF"/>
  <path d="M14 76 Q34 66 60 74 L60 76 Z" fill="#FFFFFF"/>
  <path d="M14 86 q6 -5 12 0 t12 0 t12 0 t12 0 t12 0 t12 0" fill="none" stroke="#FFFFFF" stroke-width="4"/></g>
<text x="198" y="285" text-anchor="middle" font-family="Helvetica, Arial, sans-serif" font-size="9" font-weight="600" fill="#333">Ao ar livre</text>
<g transform="translate(264 170)"><rect width="100" height="100" fill="#B0105E"/>
  <rect x="30" y="19.5" width="40" height="5" fill="#FFFFFF"/>
  <rect x="24" y="11" width="7" height="22" fill="#FFFFFF"/>
  <rect x="69" y="11" width="7" height="22" fill="#FFFFFF"/>
  <rect x="18" y="15" width="6" height="14" fill="#FFFFFF"/>
  <rect x="76" y="15" width="6" height="14" fill="#FFFFFF"/>
  <path d="M26 56 V50 a8 8 0 0 1 16 0 V56" fill="none" stroke="#FFFFFF" stroke-width="4"/>
  <path d="M18 54 H50 L52 88 H16 Z" fill="#FFFFFF"/>
  <rect x="56" y="52" width="30" height="7" fill="#FFFFFF"/>
  <rect x="58" y="58" width="2.4" height="18" fill="#FFFFFF"/><rect x="63" y="58" width="2.4" height="18" fill="#FFFFFF"/><rect x="68" y="58" width="2.4" height="18" fill="#FFFFFF"/><rect x="73" y="58" width="2.4" height="18" fill="#FFFFFF"/><rect x="78" y="58" width="2.4" height="18" fill="#FFFFFF"/><rect x="83" y="58" width="2.4" height="18" fill="#FFFFFF"/></g>
<text x="314" y="285" text-anchor="middle" font-family="Helvetica, Arial, sans-serif" font-size="9" font-weight="600" fill="#333">Estilo de vida</text>
<g transform="translate(380 170)"><rect width="100" height="100" fill="#C2410C"/>
  <rect x="10" y="40" width="6" height="42" fill="#FFFFFF"/>
  <rect x="10" y="64" width="50" height="7" fill="#FFFFFF"/>
  <rect x="54" y="71" width="6" height="11" fill="#FFFFFF"/>
  <rect x="19" y="52" width="12" height="9" fill="#FFFFFF"/>
  <rect x="33" y="50" width="27" height="11" fill="#FFFFFF"/>
  <path d="M71 40 V32 H83 V40" fill="none" stroke="#FFFFFF" stroke-width="4"/>
  <rect x="65" y="40" width="24" height="38" fill="#FFFFFF"/>
  <line x1="72" y1="46" x2="72" y2="72" stroke="#C2410C" stroke-width="2.6"/>
  <line x1="82" y1="46" x2="82" y2="72" stroke="#C2410C" stroke-width="2.6"/>
  <rect x="68" y="78" width="4" height="5" fill="#FFFFFF"/>
  <rect x="82" y="78" width="4" height="5" fill="#FFFFFF"/></g>
<text x="430" y="285" text-anchor="middle" font-family="Helvetica, Arial, sans-serif" font-size="9" font-weight="600" fill="#333">Alojamento</text>
</svg>